#!OML:ASF I:\Actors\actors\Patient Classification 1\Patient 1\Session 1\Subject1.ASF
:FULLY-SPECIFIED
:DEGREES
608
root 0.0135545 17.5512 8.22457 10.0468 11.3371 -11.7526
lowerback 3.81729 5.92095 4.92695
upperback -2.09392 8.15818 -0.762957
thorax -3.50363 3.93399 -4.01754
lowerneck -17.0191 -4.96937 -5.54046
upperneck 17.2706 -7.90945 12.0269
head 8.95514 -2.84139 3.99886
rclavicle 4.69132e-014 7.95139e-016
rhumerus 45.2902 40.9403 -38.1373
rradius 59.2473
rwrist 24.3697
rhand 0.513171 -31.7853
rfingers 7.12502
rthumb 26.0818 -420.015
lclavicle 4.69132e-014 7.95139e-016
lhumerus 42.6199 -44.2743 46.4397
lradius 56.708
lwrist 19.1019
lhand -4.96397 15.8699
lfingers 7.12502
lthumb 20.828 44.772
rfemur -5.09239 23.0899 26.4265
rtibia 2.34193
rfoot -18.319 -34.0403
rtoes 11.1705
lfemur -9.06588 -33.6989 1.38864
ltibia -0.252565
lfoot -7.97291 35.9
ltoes -7.2079
609
root 0.0152378 17.5526 8.22291 10.0226 11.5084 -11.8069
lowerback 3.98546 5.94338 5.06217
upperback -2.16626 8.20417 -0.848624
thorax -3.63833 3.94628 -4.20567
lowerneck -17.0242 -4.98758 -5.49616
upperneck 17.3133 -7.96055 12.0738
head 8.97655 -2.85553 4.00138
rclavicle -1.2921e-014 3.18055e-014
rhumerus 45.2923 40.7699 -37.9408
rradius 59.168
rwrist 25.7359
rhand -1.56905 -31.6259
rfingers 7.12502
rthumb 24.0867 -420.134
lclavicle -1.2921e-014 3.18055e-014
lhumerus 42.6596 -44.5262 46.2825
lradius 57.0909
lwrist 20.803
lhand -3.87286 16.0319
lfingers 7.12502
lthumb 21.876 44.8153
rfemur -5.06395 23.0969 26.5046
rtibia 2.32627
rfoot -18.4923 -34.1783
rtoes 11.3332
lfemur -9.16704 -33.5065 1.50371
ltibia -0.261243
lfoot -7.76606 35.5722
ltoes -7.47915
610
root 0.0175402 17.5541 8.22164 10.0095 11.6248 -11.8401
lowerback 4.025 5.94589 5.02842
upperback -2.16417 8.20803 -0.83852
thorax -3.66401 3.94818 -4.18211
lowerneck -17.1289 -4.99907 -5.43087
upperneck 17.428 -7.9791 11.9631
head 9.02852 -2.86374 3.9499
rclavicle -3.69739e-014 -3.73715e-014
rhumerus 45.6848 40.6896 -37.3664
rradius 59.0885
rwrist 26.8948
rhand -3.40102 -31.5249
rfingers 7.12502
rthumb 22.329 -420.255
lclavicle -3.69739e-014 -3.73715e-014
lhumerus 42.5971 -44.65 46.2089
lradius 57.5274
lwrist 22.0391
lhand -3.12762 16.112
lfingers 7.12502
lthumb 22.5915 44.8101
rfemur -5.03461 23.1579 26.5614
rtibia 2.31075
rfoot -18.5728 -34.3592
rtoes 11.2787
lfemur -9.25102 -33.3249 1.57495
ltibia -0.245461
lfoot -7.60601 35.3088
ltoes -7.79005
611
root 0.0200875 17.5555 8.22113 9.98771 11.7178 -11.8751
lowerback 4.06636 5.97358 5.02078
upperback -2.15604 8.24641 -0.840539
thorax -3.67556 3.96711 -4.18612
lowerneck -17.1164 -5.01556 -5.41118
upperneck 17.3798 -7.99388 11.9251
head 9.0085 -2.87517 3.93053
rclavicle 6.95746e-014 1.11319e-014
rhumerus 46.0172 40.5906 -36.8147
rradius 58.9762
rwrist 27.7782
rhand -5.08562 -31.218
rfingers 7.12502
rthumb 20.7111 -420.133
lclavicle 6.95746e-014 1.11319e-014
lhumerus 42.6336 -44.8024 45.9944
lradius 58.003
lwrist 22.5839
lhand -2.5439 15.8106
lfingers 7.12502
lthumb 23.1516 44.4394
rfemur -4.9792 23.2284 26.6182
rtibia 2.26268
rfoot -18.5721 -34.5381
rtoes 11.243
lfemur -9.3091 -33.2587 1.62637
ltibia -0.211875
lfoot -7.50021 35.1614
ltoes -8.05238
612
root 0.0230698 17.5564 8.21976 9.97427 11.7933 -11.8971
lowerback 4.00605 5.95804 4.89212
upperback -2.08448 8.21598 -0.748508
thorax -3.60093 3.96014 -4.00892
lowerneck -17.1135 -4.97179 -5.42359
upperneck 17.2683 -7.89955 11.842
head 8.95678 -2.84439 3.91496
rclavicle -3.53837e-014 -1.11319e-014
rhumerus 46.7443 40.5802 -35.9847
rradius 58.6724
rwrist 28.7243
rhand -6.97651 -30.4742
rfingers 7.12502
rthumb 18.8934 -419.577
lclavicle -3.53837e-014 -1.11319e-014
lhumerus 42.5648 -44.7321 45.8914
lradius 58.4185
lwrist 22.6009
lhand -1.73264 15.2265
lfingers 7.12502
lthumb 23.9298 43.7554
rfemur -4.95423 23.2876 26.6414
rtibia 2.23635
rfoot -18.6242 -34.649
rtoes 11.4117
lfemur -9.36076 -33.2418 1.66468
ltibia -0.193746
lfoot -7.47004 35.0749
ltoes -8.12657
613
root 0.0272919 17.5566 8.21653 9.97162 11.8562 -11.9186
lowerback 3.6878 5.85236 4.49474
upperback -1.85157 8.03961 -0.451299
thorax -3.29226 3.89921 -3.42975
lowerneck -17.151 -4.80216 -5.35208
upperneck 17.0329 -7.58984 11.5327
head 8.83521 -2.73324 3.83412
rclavicle -4.69132e-014 3.97569e-015
rhumerus 48.2322 40.7029 -34.3986
rradius 58.3071
rwrist 29.8157
rhand -9.08111 -29.5624
rfingers 7.12502
rthumb 16.8684 -418.85
lclavicle -4.69132e-014 3.97569e-015
lhumerus 42.265 -44.2185 46.1034
lradius 58.7063
lwrist 22.4567
lhand -0.841014 14.5923
lfingers 7.12502
lthumb 24.7846 43.0063
rfemur -4.96766 23.3104 26.6409
rtibia 2.22584
rfoot -18.6806 -34.7022
rtoes 11.5316
lfemur -9.44595 -33.1661 1.70443
ltibia -0.13713
lfoot -7.46139 34.9608
ltoes -8.13294
614
root 0.0316998 17.5569 8.21309 9.98104 11.9171 -11.9605
lowerback 3.71215 5.89534 4.59662
upperback -1.83096 8.10131 -0.494853
thorax -3.2592 3.92857 -3.53243
lowerneck -16.9902 -4.81292 -5.35304
upperneck 16.6797 -7.59544 11.643
head 8.69239 -2.74088 3.86788
rclavicle 2.92213e-014 -6.36111e-015
rhumerus 48.7109 40.6369 -33.6882
rradius 58.0362
rwrist 30.7311
rhand -10.7719 -28.7605
rfingers 7.12502
rthumb 15.2403 -418.179
lclavicle 2.92213e-014 -6.36111e-015
lhumerus 42.5044 -44.3164 45.6992
lradius 59.0899
lwrist 22.5906
lhand -0.324287 14.1507
lfingers 7.12502
lthumb 25.2797 42.4957
rfemur -4.99801 23.2856 26.6525
rtibia 2.19987
rfoot -18.6511 -34.7469
rtoes 11.3441
lfemur -9.54541 -33.1254 1.77995
ltibia -0.087965
lfoot -7.3922 34.8711
ltoes -8.21939
615
root 0.0351814 17.5577 8.21116 10.0241 11.9444 -11.9771
lowerback 3.68129 5.94807 4.59342
upperback -1.80463 8.1686 -0.506889
thorax -3.20717 3.96422 -3.53969
lowerneck -16.3815 -4.89439 -6.23216
upperneck 15.7096 -7.66668 12.9407
head 8.35974 -2.75339 4.44502
rclavicle -9.54166e-015 -2.3059e-014
rhumerus 49.1599 40.5409 -33.1644
rradius 57.8192
rwrist 31.2697
rhand -11.7501 -27.7161
rfingers 7.12502
rthumb 14.2978 -417.204
lclavicle -9.54166e-015 -2.3059e-014
lhumerus 42.7437 -44.4128 45.2747
lradius 59.5689
lwrist 22.6762
lhand -0.0738921 13.6793
lfingers 7.12502
lthumb 25.5196 41.9902
rfemur -5.03363 23.3216 26.6422
rtibia 2.17036
rfoot -18.6836 -34.7946
rtoes 11.4312
lfemur -9.62428 -33.1274 1.83272
ltibia -0.0893292
lfoot -7.3823 34.8557
ltoes -8.32093
616
root 0.0380779 17.5591 8.20916 10.0533 11.937 -11.9985
lowerback 3.69324 6.00762 4.56098
upperback -1.78034 8.24549 -0.525
thorax -3.18351 4.00421 -3.54311
lowerneck -17.2497 -4.78738 -5.04674
upperneck 16.6283 -7.54717 11.2618
head 8.68792 -2.72984 3.68773
rclavicle 5.4467e-014 -2.38542e-015
rhumerus 49.5911 40.4138 -32.7623
rradius 57.6431
rwrist 31.6149
rhand -12.1698 -26.4831
rfingers 7.12502
rthumb 13.8934 -415.999
lclavicle 5.4467e-014 -2.38542e-015
lhumerus 42.9711 -44.5078 44.7352
lradius 60.1207
lwrist 22.2519
lhand -0.0484681 13.0157
lfingers 7.12502
lthumb 25.5439 41.3231
rfemur -5.04431 23.4192 26.654
rtibia 2.1481
rfoot -18.7703 -34.8325
rtoes 11.7226
lfemur -9.66791 -33.0745 1.86619
ltibia -0.0820562
lfoot -7.38277 34.8232
ltoes -8.5251
617
root 0.0417718 17.5616 8.20579 10.0292 11.9242 -12.0385
lowerback 3.77369 6.04519 4.55551
upperback -1.73779 8.29702 -0.548895
thorax -3.17698 4.03048 -3.57301
lowerneck -17.3275 -4.73188 -4.9184
upperneck 16.5636 -7.4925 11.251
head 8.67016 -2.69612 3.6683
rclavicle 1.98785e-014 -3.18055e-014
rhumerus 50.1617 40.3553 -32.2954
rradius 57.4883
rwrist 31.5806
rhand -12.2191 -25.7471
rfingers 7.12502
rthumb 13.8459 -415.266
lclavicle 1.98785e-014 -3.18055e-014
lhumerus 43.1368 -44.502 44.1504
lradius 60.6646
lwrist 21.3697
lhand -0.445207 12.2445
lfingers 7.12502
lthumb 25.1639 40.6059
rfemur -5.02037 23.4466 26.6959
rtibia 2.13276
rfoot -18.7371 -34.8547
rtoes 11.6429
lfemur -9.6557 -33.0878 1.88201
ltibia -0.0618109
lfoot -7.38141 34.8351
ltoes -8.51401
